<svg viewBox="0 0 638 465" fill="none" xmlns="http://www.w3.org/2000/svg"><path d="M400.155 183.077h-17.463c-9.176-.07-18.353-.069-27.392.138-5.958.276-11.711 4.836-13.902 9.188-9.451 18.722-23.764 27.842-43.897 27.911h-.137c-19.86 0-34.241-9.051-43.76-27.704-2.534-4.905-8.971-9.05-14.655-9.257-8.835-.415-17.395-.345-26.572-.345l-19.175.069.685 9.05c3.561 46.978 51.978 85.666 105.257 85.666 2.192 0 4.315 0 6.438-.207 48.485-2.764 96.491-46.357 94.916-86.426l-.343-8.083zm-95.669 77.652c-42.391 2.556-83.548-25.7-92.109-60.796h.206c8.903 0 17.257-.069 25.133.277.274 0 .685.345.685.207 12.6 24.18 33.008 36.546 59.237 36.892 26.297-.069 46.636-12.919 59.237-37.03 8.629-.276 17.12-.276 25.749-.138h.137c-5.342 28.325-42.801 58.446-78.275 60.588zm95.669-77.652h-17.463c-9.176-.07-18.353-.069-27.392.138-5.958.276-11.711 4.836-13.902 9.188-9.451 18.722-23.764 27.842-43.897 27.911h-.137c-19.86 0-34.241-9.051-43.76-27.704-2.534-4.905-8.971-9.05-14.655-9.257-8.835-.415-17.395-.345-26.572-.345l-19.175.069.685 9.05c3.561 46.978 51.978 85.666 105.257 85.666 2.192 0 4.315 0 6.438-.207 48.485-2.764 96.491-46.357 94.916-86.426l-.343-8.083zm-95.669 77.652c-42.391 2.556-83.548-25.7-92.109-60.796h.206c8.903 0 17.257-.069 25.133.277.274 0 .685.345.685.207 12.6 24.18 33.008 36.546 59.237 36.892 26.297-.069 46.636-12.919 59.237-37.03 8.629-.276 17.12-.276 25.749-.138h.137c-5.342 28.325-42.801 58.446-78.275 60.588zm95.669-77.652h-17.463c-9.176-.07-18.353-.069-27.392.138-5.958.276-11.711 4.836-13.902 9.188-9.451 18.722-23.764 27.842-43.897 27.911h-.137c-19.86 0-34.241-9.051-43.76-27.704-2.534-4.905-8.971-9.05-14.655-9.257-8.835-.415-17.395-.345-26.572-.345l-19.175.069.685 9.05c3.561 46.978 51.978 85.666 105.257 85.666 2.192 0 4.315 0 6.438-.207 48.485-2.764 96.491-46.357 94.916-86.426l-.343-8.083zm-95.669 77.652c-42.391 2.556-83.548-25.7-92.109-60.796h.206c8.903 0 17.257-.069 25.133.277.274 0 .685.345.685.207 12.6 24.18 33.008 36.546 59.237 36.892 26.297-.069 46.636-12.919 59.237-37.03 8.629-.276 17.12-.276 25.749-.138h.137c-5.342 28.325-42.801 58.446-78.275 60.588zm95.669-77.652h-17.463c-9.176-.07-18.353-.069-27.392.138-5.958.276-11.711 4.836-13.902 9.188-9.451 18.722-23.764 27.842-43.897 27.911h-.137c-19.86 0-34.241-9.051-43.76-27.704-2.534-4.905-8.971-9.05-14.655-9.257-8.835-.415-17.395-.345-26.572-.345l-19.175.069.685 9.05c3.561 46.978 51.978 85.666 105.257 85.666 2.192 0 4.315 0 6.438-.207 48.485-2.764 96.491-46.357 94.916-86.426l-.343-8.083zm-95.669 77.652c-42.391 2.556-83.548-25.7-92.109-60.796h.206c8.903 0 17.257-.069 25.133.277.274 0 .685.345.685.207 12.6 24.18 33.008 36.546 59.237 36.892 26.297-.069 46.636-12.919 59.237-37.03 8.629-.276 17.12-.276 25.749-.138h.137c-5.342 28.325-42.801 58.446-78.275 60.588zM674.426.899c-4.451.414-8.765.76-13.011 1.104-9.519.76-18.422 1.52-27.598 3.04-25.818 4.56-47.048 15.13-62.525 30.536-1.164 1.175-2.328 2.349-3.355 3.662-5.547 6.01-10.204 12.78-13.902 20.103a98.244 98.244 0 00-2.671 5.39c-4.588 10.431-7.533 21.554-8.766 32.884-2.534 22.107-1.986 44.629-1.575 66.322l.206 10.086c.479 26.046-3.561 50.847-12.122 75.994-37.665 109.639-152.372 178.241-267.08 159.588-101.97-16.512-169.562-75.58-201.2-175.477-2.74-8.981-4.11-18.584-5.616-28.809-.274-1.589-.411-3.316-.685-4.974h23.49l3.56 13.195c3.425 13.748 7.123 27.911 12.601 41.313 37.46 91.815 135.047 145.84 237.359 131.539 103.819-14.646 185.107-106.322 184.971-208.845v-14.854c-.069-16.097-.069-32.332.068-48.498.411-32.815-10.957-60.795-32.734-80.83C459.05 10.57 422.001-.484 382.213 3.04l-7.738.69v48.775l16.161 1.243c5.616.415 11.026.83 16.368 1.451 35.336 3.8 53.553 20.933 55.676 52.436 1.849 25.976 3.355 55.959-.206 84.63-8.012 65.286-43.691 110.26-106.079 133.404-61.291 22.867-118.405 12.643-169.561-30.398-29.174-24.594-47.253-56.373-53.828-94.647h23.969c8.971 39.034 31.913 71.297 65.058 91.4 34.995 21.279 77.18 26.944 115.941 15.545 67.865-19.897 112.105-88.292 98.751-152.265l-1.438-6.77H309.074l.069 14.231c.068 3.593.068 6.978-.069 10.363-.411 7.185-5.478 12.367-12.053 12.021-6.369-.276-10.82-5.181-11.162-12.09a284.144 284.144 0 010-10.846v-13.61H.973l-.48 7.945C.22 161.522.015 166.565.015 171.47c-.274 27.634 3.424 55.2 11.163 81.728 17.326 60.381 53.964 111.504 101.696 148.327.342.345.753.553 1.164.898 52.937 40.346 117.447 62.177 183.738 62.315 17.668 0 35.336-1.589 52.731-4.767 51.088-9.257 97.313-30.605 135.389-61.002a23.67 23.67 0 001.918-1.52c56.292-45.597 94.574-110.813 104.503-185.011.274-1.934.48-3.8.685-5.734.069-.207.069-.484.069-.691 2.26-20.38 2.191-40.968 1.917-61.072v-3.385c-.068-9.395-.137-18.86-.068-28.187 0-2.349.137-4.628.411-6.977 2.465-27.082 18.079-43.731 46.294-49.465 7.464-1.52 15.134-2.28 23.215-3.11 3.835-.414 7.533-.76 11.436-1.243l7.602-.898V0l-9.451.898zm-7.738 35.716c-1.233.07-2.465.277-3.63.346-8.149.829-16.572 1.796-24.79 3.385-24.037 4.836-41.5 16.788-51.293 34.612-1.233 2.21-2.26 4.49-3.219 6.77-3.835 9.189-5.889 19.69-6.026 31.365-.069 9.465 0 19.068.068 28.67.343 22.661.616 46.08-2.465 68.395-15.888 119.518-105.394 210.987-228.046 233.026a309.665 309.665 0 01-37.391 4.145c-19.244.829-38.487-.277-57.525-3.455a142.246 142.246 0 01-9.725-1.796c-100.326-19.62-186.065-92.92-215.102-193.647a261.875 261.875 0 01-10.34-83.04H268.67c0 2.694 0 5.388.205 8.152.617 15.959 12.258 27.91 27.667 28.394 15.888.691 28.831-11.676 29.721-27.911.069-2.763.137-5.665.069-8.635h94.847c7.328 53.61-30.817 109.017-87.999 125.943-33.556 9.81-71.701 4.766-102.039-13.748-31.022-18.861-51.772-49.673-58.757-87.048l-1.233-6.84h-57.525l1.164 9.396c5.547 46.978 26.16 85.735 61.086 115.096 55.402 46.633 119.981 58.17 186.614 33.3 67.798-25.217 108.271-76.133 117.105-147.222 3.629-30.121 1.986-61.071.137-87.876-2.808-39.794-27.256-63.352-70.879-68.119-5.547-.621-11.094-1.036-16.915-1.45l-.411-17.48c32.049-1.035 60.949 8.291 80.603 26.392 18.216 16.718 27.667 40.276 27.325 68.187-.206 16.304-.206 32.539-.069 48.843v14.785c.068 94.232-74.714 178.586-170.383 192.057-94.506 13.334-184.56-36.546-219.143-121.106-4.931-12.298-8.355-25.355-11.848-39.172-1.643-6.563-3.424-13.126-5.273-19.758l-1.849-6.218H34.255l1.78 9.948c.891 4.836 1.576 9.672 2.26 14.439 1.439 10.432 2.945 21.209 6.233 31.572C78.22 345.842 150.47 408.71 259.288 426.396c122.788 19.896 245.714-53.542 285.981-170.78a238.489 238.489 0 0013.149-81.728l-.274-10.155c-.411-21.21-.822-43.041 1.506-64.043.617-5.596 1.644-11.053 3.219-16.442a78.507 78.507 0 0116.093-30.674c13.286-15.751 32.872-26.252 57.936-30.674 8.287-1.45 16.984-2.141 26.023-2.763 1.302-.139 2.534-.277 3.835-.346l-.068 17.824zM299.144 277.724c2.192 0 4.315 0 6.438-.208 48.485-2.763 96.491-46.356 94.916-86.425l-.343-8.153h-17.463c-9.176-.069-18.353-.069-27.392.139-5.958.276-11.711 4.836-13.902 9.188-9.451 18.722-23.764 27.841-43.897 27.911h-.137c-19.86 0-34.241-9.051-43.76-27.704-2.534-4.905-8.971-9.05-14.655-9.257-8.835-.415-17.395-.346-26.572-.346l-19.175.069.685 9.051c3.561 47.116 51.978 85.735 105.257 85.735zm-86.561-77.791c8.903 0 17.257-.069 25.133.277.274 0 .685.345.685.207 12.6 24.18 33.008 36.546 59.237 36.892 26.297-.069 46.636-12.919 59.237-37.03 8.629-.276 17.12-.276 25.749-.138h.137c-5.41 28.463-42.801 58.584-78.275 60.726-42.391 2.556-83.548-25.7-92.109-60.795l.206-.139zm187.641-16.856h-17.463c-9.177-.07-18.353-.069-27.393.138-5.958.276-11.71 4.836-13.902 9.188-9.45 18.722-23.763 27.842-43.897 27.911h-.137c-19.86 0-34.241-9.051-43.76-27.704-2.534-4.905-8.971-9.05-14.655-9.257-8.834-.415-17.395-.345-26.571-.345l-19.175.069.685 9.05c3.561 46.978 51.978 85.666 105.257 85.666 2.191 0 4.314 0 6.437-.207 48.485-2.764 96.491-46.357 94.916-86.426l-.342-8.083zm-95.738 77.652c-42.391 2.556-83.548-25.7-92.109-60.796h.206c8.903 0 17.257-.069 25.133.277.274 0 .685.345.685.207 12.6 24.18 33.008 36.546 59.237 36.892 26.297-.069 46.636-12.919 59.237-37.03 8.629-.276 17.12-.276 25.749-.138h.137c-5.342 28.325-42.801 58.446-78.275 60.588zm95.669-77.652h-17.463c-9.176-.07-18.353-.069-27.392.138-5.958.276-11.711 4.836-13.902 9.188-9.451 18.722-23.764 27.842-43.897 27.911h-.137c-19.86 0-34.241-9.051-43.76-27.704-2.534-4.905-8.971-9.05-14.655-9.257-8.835-.415-17.395-.345-26.572-.345l-19.175.069.685 9.05c3.561 46.978 51.978 85.666 105.257 85.666 2.192 0 4.315 0 6.438-.207 48.485-2.764 96.491-46.357 94.916-86.426l-.343-8.083zm-95.669 77.652c-42.391 2.556-83.548-25.7-92.109-60.796h.206c8.903 0 17.257-.069 25.133.277.274 0 .685.345.685.207 12.6 24.18 33.008 36.546 59.237 36.892 26.297-.069 46.636-12.919 59.237-37.03 8.629-.276 17.12-.276 25.749-.138h.137c-5.342 28.325-42.801 58.446-78.275 60.588zm95.669-77.652h-17.463c-9.176-.07-18.353-.069-27.392.138-5.958.276-11.711 4.836-13.902 9.188-9.451 18.722-23.764 27.842-43.897 27.911h-.137c-19.86 0-34.241-9.051-43.76-27.704-2.534-4.905-8.971-9.05-14.655-9.257-8.835-.415-17.395-.345-26.572-.345l-19.175.069.685 9.05c3.561 46.978 51.978 85.666 105.257 85.666 2.192 0 4.315 0 6.438-.207 48.485-2.764 96.491-46.357 94.916-86.426l-.343-8.083zm-95.669 77.652c-42.391 2.556-83.548-25.7-92.109-60.796h.206c8.903 0 17.257-.069 25.133.277.274 0 .685.345.685.207 12.6 24.18 33.008 36.546 59.237 36.892 26.297-.069 46.636-12.919 59.237-37.03 8.629-.276 17.12-.276 25.749-.138h.137c-5.342 28.325-42.801 58.446-78.275 60.588zm95.669-77.652h-17.463c-9.176-.07-18.353-.069-27.392.138-5.958.276-11.711 4.836-13.902 9.188-9.451 18.722-23.764 27.842-43.897 27.911h-.137c-19.86 0-34.241-9.051-43.76-27.704-2.534-4.905-8.971-9.05-14.655-9.257-8.835-.415-17.395-.345-26.572-.345l-19.175.069.685 9.05c3.561 46.978 51.978 85.666 105.257 85.666 2.192 0 4.315 0 6.438-.207 48.485-2.764 96.491-46.357 94.916-86.426l-.343-8.083zm-95.669 77.652c-42.391 2.556-83.548-25.7-92.109-60.796h.206c8.903 0 17.257-.069 25.133.277.274 0 .685.345.685.207 12.6 24.18 33.008 36.546 59.237 36.892 26.297-.069 46.636-12.919 59.237-37.03 8.629-.276 17.12-.276 25.749-.138h.137c-5.342 28.325-42.801 58.446-78.275 60.588z" fill="url(#paint0_radial)"/><defs><radialGradient id="paint0_radial" cx="0" cy="0" r="1" gradientUnits="userSpaceOnUse" gradientTransform="matrix(445.21639 2.92577 -2.95155 449.1383 284.996 230.956)"><stop stop-color="#FF1D25"/><stop offset="1" stop-color="#E10090"/></radialGradient></defs></svg>