<svg width="160" height="171" fill="none" xmlns="http://www.w3.org/2000/svg"><path d="M98.333 8.75H19.667c-5.433 0-9.784 3.916-9.784 8.75l-.05 78.75L29.5 78.75h68.833c5.433 0 9.834-3.916 9.834-8.75V17.5c0-4.834-4.401-8.75-9.834-8.75zM29.5 39.375h59v8.75h-59v-8.75zM68.833 61.25H29.5V52.5h39.333v8.75zM88.5 35h-59v-8.75h59V35zM141.667 87.583H68.333c-5.064 0-9.166 3.394-9.166 7.584v68.25L77.5 148.25h64.167c5.064 0 9.166-3.394 9.166-7.583v-45.5c0-4.19-4.102-7.584-9.166-7.584zm0 53.084H77.5l-9.167 7.583V95.167h73.334v45.5z" fill="#fff"/></svg>