<svg width="32" height="32" fill="none" xmlns="http://www.w3.org/2000/svg"><path d="M30.667 9.333v-8h-8V4H9.333V1.333h-8v8H4v13.334H1.333v8h8V28h13.334v2.667h8v-8H28V9.333h2.667zM4 4h2.667v2.667H4V4zm2.667 24H4v-2.667h2.667V28zm16-2.667H9.333v-2.666H6.667V9.333h2.666V6.667h13.334v2.666h2.666v13.334h-2.666v2.666zM28 28h-2.667v-2.667H28V28zM25.333 6.667V4H28v2.667h-2.667zm-7.02 12h-4.646l-.974 2.666h-2.166l4.533-12h1.873l4.54 12H19.3l-.987-2.666zm-4.066-1.68h3.48l-1.74-5.107-1.74 5.107z" fill="#fff"/></svg>